<svg width="40" height="44" viewBox="0 0 40 44" xmlns="http://www.w3.org/2000/svg" role="img" aria-label="ISER">
  <defs>
    <linearGradient id="g" x1="0" y1="0" x2="1" y2="1">
      <stop offset="0" stop-color="#0A6CE4"/>
      <stop offset=".5" stop-color="#1E9BF0"/>
      <stop offset="1" stop-color="#2BD0F5"/>
    </linearGradient>
  </defs>
  <!-- Angular ISER blade monogram -->
  <path d="M2 7 L9 4 L9 33 L2 36 Z" fill="url(#g)"/>
  <path d="M9 4 L9 9 L4 11 Z" fill="url(#g)" opacity=".7"/>
  <path d="M14 4 L26 9 L20 14 L14 11 Z" fill="url(#g)"/>
  <path d="M14 16 L26 11 L26 21 L14 26 Z" fill="url(#g)" opacity=".82"/>
  <path d="M14 28 L26 23 L20 33 L14 40 Z" fill="url(#g)"/>
  <path d="M30 4 L38 9 L38 20 L30 24 L34 14 Z" fill="url(#g)"/>
  <path d="M30 26 L38 23 L38 40 L30 40 Z" fill="url(#g)" opacity=".7"/>
</svg>
