<svg width="96" height="96" viewBox="0 0 96 96" fill="none" xmlns="http://www.w3.org/2000/svg" role="img" aria-label="عمارتي">
  <rect width="96" height="96" rx="22" fill="#0D6E6E"/>
  <!-- البرج الخلفي (خردلي) -->
  <rect x="50" y="30" width="22" height="44" rx="3" fill="#D9A21B"/>
  <rect x="55" y="37" width="5" height="5" rx="1" fill="#0D6E6E"/>
  <rect x="63" y="37" width="5" height="5" rx="1" fill="#0D6E6E"/>
  <rect x="55" y="47" width="5" height="5" rx="1" fill="#0D6E6E"/>
  <rect x="63" y="47" width="5" height="5" rx="1" fill="#0D6E6E"/>
  <rect x="55" y="57" width="5" height="5" rx="1" fill="#0D6E6E"/>
  <rect x="63" y="57" width="5" height="5" rx="1" fill="#0D6E6E"/>
  <!-- المبنى الأمامي (فاتح) -->
  <rect x="24" y="20" width="30" height="54" rx="4" fill="#F1F5F4"/>
  <!-- شبابيك المبنى الأمامي -->
  <g fill="#0D6E6E">
    <rect x="29" y="28" width="6" height="6" rx="1.2"/>
    <rect x="43" y="28" width="6" height="6" rx="1.2"/>
    <rect x="29" y="40" width="6" height="6" rx="1.2"/>
    <rect x="43" y="40" width="6" height="6" rx="1.2"/>
    <rect x="29" y="52" width="6" height="6" rx="1.2"/>
    <rect x="43" y="52" width="6" height="6" rx="1.2"/>
  </g>
  <!-- باب -->
  <rect x="35" y="63" width="8" height="11" rx="2" fill="#D9A21B"/>
  <!-- خط الأرض -->
  <rect x="18" y="74" width="60" height="5" rx="2.5" fill="#062424"/>
</svg>
