<svg width="64" height="64" viewBox="0 0 64 64" fill="none" xmlns="http://www.w3.org/2000/svg">
  <defs>
    <linearGradient id="fawtaraGlow" x1="8" y1="6" x2="56" y2="58" gradientUnits="userSpaceOnUse">
      <stop stop-color="#67E8F9" />
      <stop offset="0.55" stop-color="#22D3EE" />
      <stop offset="1" stop-color="#FB7185" />
    </linearGradient>
  </defs>
  <rect x="3" y="3" width="58" height="58" rx="16" fill="#0A0E17" />
  <rect x="3.75" y="3.75" width="56.5" height="56.5" rx="15.25" stroke="url(#fawtaraGlow)" stroke-width="1.5" stroke-opacity="0.6" />
  <!-- مستند فاتورة بزاوية مقصوصة -->
  <path d="M20 16h17l9 9v23a3 3 0 0 1-3 3H20a3 3 0 0 1-3-3V19a3 3 0 0 1 3-3z" fill="url(#fawtaraGlow)" />
  <path d="M37 16l9 9h-7a2 2 0 0 1-2-2v-7z" fill="#0A0E17" fill-opacity="0.35" />
  <!-- أسطر الفاتورة -->
  <rect x="23" y="29" width="14" height="2.6" rx="1.3" fill="#0A0E17" fill-opacity="0.85" />
  <rect x="23" y="35" width="18" height="2.6" rx="1.3" fill="#0A0E17" fill-opacity="0.7" />
  <!-- علامة صح التحصيل -->
  <circle cx="40" cy="44" r="6.5" fill="#0A0E17" />
  <path d="M36.6 44.2l2.3 2.3 4.4-4.6" stroke="url(#fawtaraGlow)" stroke-width="2.4" stroke-linecap="round" stroke-linejoin="round" />
</svg>
