<svg width="64" height="64" viewBox="0 0 64 64" fill="none" xmlns="http://www.w3.org/2000/svg" role="img" aria-label="ميزان">
  <rect x="2" y="2" width="60" height="60" rx="16" fill="#6A1A2B"/>
  <rect x="2" y="2" width="60" height="60" rx="16" fill="url(#g)" fill-opacity="0.25"/>
  <!-- central column -->
  <rect x="30.5" y="16" width="3" height="34" rx="1.5" fill="#DEC06B"/>
  <!-- top finial -->
  <circle cx="32" cy="14" r="3.4" fill="#DEC06B"/>
  <!-- base -->
  <path d="M24 51h16l-2.4-3.2H26.4L24 51z" fill="#DEC06B"/>
  <rect x="22.5" y="50.5" width="19" height="2.6" rx="1.3" fill="#DEC06B"/>
  <!-- balance beam -->
  <rect x="13" y="19.4" width="38" height="2.8" rx="1.4" fill="#DEC06B" transform="rotate(-4 32 20.8)"/>
  <!-- hanger lines -->
  <path d="M16 21l-3.5 7M48 21l3.5 7" stroke="#F5ECCF" stroke-width="1.4" stroke-linecap="round"/>
  <!-- left pan -->
  <path d="M8 27.5h12a6 6 0 0 1-12 0z" fill="#F5ECCF"/>
  <!-- right pan -->
  <path d="M44 28.7h12a6 6 0 0 1-12 0z" fill="#F5ECCF"/>
  <defs>
    <linearGradient id="g" x1="2" y1="2" x2="62" y2="62" gradientUnits="userSpaceOnUse">
      <stop stop-color="#9E2E44"/>
      <stop offset="1" stop-color="#42101B"/>
    </linearGradient>
  </defs>
</svg>
