<svg width="96" height="96" viewBox="0 0 96 96" fill="none" xmlns="http://www.w3.org/2000/svg" role="img" aria-label="مناسبة">
  <rect width="96" height="96" rx="26" fill="#1F1535"/>
  <!-- كونفيتي خفيف -->
  <circle cx="22" cy="26" r="2" fill="#CB3470" opacity="0.7"/>
  <circle cx="74" cy="30" r="2" fill="#CDA23E" opacity="0.8"/>
  <circle cx="68" cy="68" r="1.8" fill="#CB3470" opacity="0.6"/>
  <!-- نجمة احتفالية -->
  <path d="M48 16 L50.4 22.2 L56.8 23 L52 27.4 L53.4 33.8 L48 30.5 L42.6 33.8 L44 27.4 L39.2 23 L45.6 22.2 Z" fill="#CDA23E"/>
  <!-- قوس / كوشة المناسبة -->
  <path d="M30 76 V52 C30 42 38 35 48 35 C58 35 66 42 66 52 V76" stroke="#CDA23E" stroke-width="6" stroke-linecap="round"/>
  <path d="M40 76 V54 C40 49 43.6 46 48 46 C52.4 46 56 49 56 54 V76" stroke="#CB3470" stroke-width="5" stroke-linecap="round"/>
  <!-- أرضية -->
  <rect x="24" y="74" width="48" height="5" rx="2.5" fill="#F6E9E4"/>
</svg>
