<svg width="48" height="48" viewBox="0 0 48 48" fill="none" xmlns="http://www.w3.org/2000/svg" role="img" aria-label="نتيجة">
  <rect width="48" height="48" rx="13" fill="#121726"/>
  <rect width="48" height="48" rx="13" fill="url(#g)" fill-opacity="0.16"/>
  <!-- أنبوب اختبار -->
  <path d="M19.5 10.5h9v3.2h-1.4v15.1a3.1 3.1 0 0 1-3.1 3.1h0a3.1 3.1 0 0 1-3.1-3.1V13.7H19.5z" fill="#fff"/>
  <!-- سائل التحليل (قرمزي) -->
  <path d="M20.9 22.2h6.2v6.6a3.1 3.1 0 0 1-3.1 3.1h0a3.1 3.1 0 0 1-3.1-3.1z" fill="#D81E40"/>
  <!-- فقاعة -->
  <circle cx="24" cy="26.6" r="1.15" fill="#fff" fill-opacity="0.8"/>
  <!-- خط نبض أكوا (نتيجة) -->
  <path d="M13 37.5h5.2l2-3.4 2.6 6 2.4-3.9 1.7 1.3H35" stroke="#0EAEC0" stroke-width="2.1" stroke-linecap="round" stroke-linejoin="round"/>
  <defs>
    <linearGradient id="g" x1="0" y1="0" x2="48" y2="48" gradientUnits="userSpaceOnUse">
      <stop stop-color="#0EAEC0"/>
      <stop offset="1" stop-color="#D81E40"/>
    </linearGradient>
  </defs>
</svg>
