<svg xmlns="http://www.w3.org/2000/svg" viewBox="0 0 64 64" fill="none">
  <rect width="64" height="64" rx="14" fill="#1E3A8A" />
  <!-- Gear ring -->
  <g fill="#F59E0B">
    <circle cx="32" cy="32" r="4" />
  </g>
  <g stroke="#F59E0B" stroke-width="2.5" stroke-linecap="round" fill="none">
    <circle cx="32" cy="32" r="14" />
    <line x1="32" y1="12" x2="32" y2="18" />
    <line x1="32" y1="46" x2="32" y2="52" />
    <line x1="12" y1="32" x2="18" y2="32" />
    <line x1="46" y1="32" x2="52" y2="32" />
    <line x1="18" y1="18" x2="22" y2="22" />
    <line x1="42" y1="42" x2="46" y2="46" />
    <line x1="46" y1="18" x2="42" y2="22" />
    <line x1="22" y1="42" x2="18" y2="46" />
  </g>
  <!-- Wrench overlay -->
  <path d="M22 40 L40 22 M22 40 L20 42 L22 44 L24 42 Z M40 22 L42 20 L44 22 L42 24 Z" stroke="#FFFFFF" stroke-width="2" stroke-linejoin="round" fill="#FFFFFF" />
</svg>
